<svg id="Layer_1" data-name="Layer 1" xmlns="http://www.w3.org/2000/svg" xmlns:xlink="http://www.w3.org/1999/xlink" viewBox="0 0 952.2 280.3"><defs><style>.cls-1{fill:url(#linear-gradient);}.cls-2{fill:url(#linear-gradient-2);}.cls-3{fill:url(#linear-gradient-3);}.cls-4{fill:url(#linear-gradient-4);}.cls-5{fill:url(#linear-gradient-5);}.cls-6{fill:url(#linear-gradient-6);}.cls-7{fill:url(#linear-gradient-7);}.cls-8{fill:url(#linear-gradient-8);}.cls-9{fill:url(#linear-gradient-9);}.cls-10{fill:url(#linear-gradient-10);}.cls-11{fill:url(#linear-gradient-11);}.cls-12{fill:url(#linear-gradient-12);}.cls-13{fill:url(#linear-gradient-13);}</style><linearGradient id="linear-gradient" x1="70.37" y1="175.21" x2="0.29" y2="105.13" gradientUnits="userSpaceOnUse"><stop offset="0"/><stop offset="1" stop-color="#a1835e"/></linearGradient><linearGradient id="linear-gradient-2" x1="277.55" y1="177.75" x2="202.34" y2="102.55" xlink:href="#linear-gradient"/><linearGradient id="linear-gradient-3" x1="100.97" y1="102.43" x2="58.06" y2="59.51" xlink:href="#linear-gradient"/><linearGradient id="linear-gradient-4" x1="226.14" y1="109.33" x2="169.62" y2="52.81" xlink:href="#linear-gradient"/><linearGradient id="linear-gradient-5" x1="173.07" y1="74.09" x2="100.76" y2="1.78" xlink:href="#linear-gradient"/><linearGradient id="linear-gradient-6" x1="170.5" y1="171.98" x2="106.95" y2="108.43" xlink:href="#linear-gradient"/><linearGradient id="linear-gradient-7" x1="109.19" y1="229.08" x2="49.78" y2="169.66" xlink:href="#linear-gradient"/><linearGradient id="linear-gradient-8" x1="173.45" y1="278.87" x2="100.39" y2="205.82" xlink:href="#linear-gradient"/><linearGradient id="linear-gradient-9" x1="218.59" y1="220.08" x2="177.04" y2="178.53" xlink:href="#linear-gradient"/><linearGradient id="linear-gradient-10" x1="466.33" y1="194.41" x2="355.31" y2="83.38" xlink:href="#linear-gradient"/><linearGradient id="linear-gradient-11" x1="616.5" y1="224.92" x2="470.08" y2="78.51" xlink:href="#linear-gradient"/><linearGradient id="linear-gradient-12" x1="766.09" y1="190.81" x2="643.63" y2="68.36" xlink:href="#linear-gradient"/><linearGradient id="linear-gradient-13" x1="930.62" y1="216.46" x2="817.24" y2="103.08" xlink:href="#linear-gradient"/></defs><path class="cls-1" d="M52.39,140.35a101.67,101.67,0,0,0-16.07,68.91,83.92,83.92,0,0,1,0-138.2,102.41,102.41,0,0,0-.79,12.74A100.76,100.76,0,0,0,52.39,140l-.14.19Z" transform="translate(-0.01 0.01)"/><path class="cls-2" d="M280.32,140.16a83.4,83.4,0,0,1-42.57,73,102,102,0,0,0-15.54-72.82l.15-.19-.15-.19a102,102,0,0,0,15.54-72.82A83.38,83.38,0,0,1,280.32,140.16Z" transform="translate(-0.01 0.01)"/><path class="cls-3" d="M125.32,67.36l-.08.08q-1.72,1.69-3.36,3.46l-.23.24q-.72.78-1.41,1.56c-.11.11-.21.23-.31.35l-1.52,1.78c-.52.6-1,1.23-1.52,1.85l-.09.12c-.47.58-.92,1.17-1.37,1.76s-1,1.37-1.54,2.07c-.27.38-.55.76-.81,1.15s-.59.83-.87,1.25-.75,1.11-1.12,1.68l-.21.33c-.46.71-.91,1.43-1.35,2.15s-.7,1.16-1,1.74l-.33.58c-.4.69-.79,1.38-1.17,2.09-.3.55-.6,1.11-.89,1.67-.53,1-1,2-1.52,3.06-.34.7-.66,1.4-1,2.11s-.69,1.55-1,2.34c-.89.32-1.77.65-2.64,1h-.07c-.8.31-1.59.64-2.38,1L97,103c-.73.31-1.46.63-2.18,1l-.17.08-2,1c-.21.09-.41.19-.61.3-.8.39-1.59.8-2.38,1.22s-1.38.74-2.06,1.12c-.34.19-.68.38-1,.58-.77.43-1.52.87-2.26,1.34l-1.68,1-.84.54c-.78.51-1.55,1-2.3,1.55q-.77.52-1.53,1.08l-.77.55c-.66.49-1.32,1-2,1.48s-1.5,1.17-2.24,1.78l-.08.06c-.63.52-1.25,1-1.87,1.58l-.47.4c-.64.56-1.27,1.13-1.89,1.7s-1.24,1.14-1.84,1.72l-.41.4c-.63.61-1.25,1.24-1.87,1.87A84,84,0,0,1,56.7,60.87a84.12,84.12,0,0,1,68.62,6.49Z" transform="translate(-0.01 0.01)"/><path class="cls-4" d="M221.11,83.8a83,83,0,0,1-11,41.56l-.27-.27c-.63-.64-1.27-1.28-1.92-1.9-.31-.3-.62-.6-.94-.89-.68-.65-1.37-1.28-2.08-1.91s-1.35-1.17-2-1.75-1.52-1.26-2.3-1.87-1.76-1.39-2.66-2c-.42-.32-.85-.63-1.28-.93a101.16,101.16,0,0,0-15.12-9c-.4-.2-.8-.39-1.21-.57l-1.48-.68c-.63-1.64-1.29-3.26-2-4.87-.13-.3-.27-.61-.41-.91-.22-.49-.44-1-.68-1.45-.38-.8-.77-1.59-1.17-2.38l-.54-1c-.25-.49-.51-1-.77-1.45-.39-.7-.78-1.4-1.18-2.1-.29-.5-.59-1-.89-1.5-.61-1-1.24-2-1.9-3-.23-.37-.47-.73-.71-1.09q-.6-.9-1.23-1.8c-.52-.75-1-1.48-1.59-2.21s-1.09-1.46-1.65-2.17-1-1.27-1.52-1.89l-.25-.31c-.55-.68-1.12-1.34-1.7-2s-1.11-1.26-1.68-1.88-1.4-1.5-2.12-2.24c-.44-.46-.89-.92-1.37-1.37L155,67.4a83.11,83.11,0,0,1,41.56-11A84.26,84.26,0,0,1,217.32,59,83.32,83.32,0,0,1,221.11,83.8Z" transform="translate(-0.01 0.01)"/><path class="cls-5" d="M208.14,39a102.3,102.3,0,0,0-11.61-.66,100.72,100.72,0,0,0-56.21,16.9l-.2-.15-.19.15A100.72,100.72,0,0,0,83.8,38.36a102.67,102.67,0,0,0-17.93,1.58A83.83,83.83,0,0,1,208.14,39Z" transform="translate(-0.01 0.01)"/><path class="cls-6" d="M199.32,140.16c-.23.27-.47.53-.72.79-.74.8-1.49,1.58-2.26,2.34s-1.28,1.25-1.94,1.86c-.49.46-1,.91-1.48,1.34h0l-1.14,1h0a.53.53,0,0,1-.14.12c-.4.35-.8.69-1.21,1-.21.18-.43.35-.64.51-.44.37-.89.72-1.34,1.06L187,151.25c-.48.35-.78.58-1.18.85l-1.19.83h-.07c-.77.53-1.55,1-2.35,1.55s-1.59,1-2.4,1.47c-.4.24-.81.47-1.22.7s-1,.54-1.45.8q-1.38.75-2.79,1.44c-.55.27-1.1.54-1.66.79l-1.66.76-.61.26c-.33.15-.67.29-1,.42l-1,.41-3.85,1.54L163.26,167q-.44,1.26-.9,2.52c-.28.74-.56,1.48-.86,2.21-.23.55-.47,1.11-.71,1.66s-.41,1-.63,1.43c-.34.74-.69,1.47-1,2.21a16.26,16.26,0,0,1-1,1.91c-.86,1.65-1.78,3.26-2.74,4.84-.38.61-.76,1.22-1.16,1.82-.11.18-.22.36-.34.53-.36.55-.73,1.1-1.11,1.64q-.83,1.2-1.71,2.37c-.19.26-.39.53-.6.79-.8,1-1.62,2.08-2.49,3.09q-.33.4-.69.81a2.09,2.09,0,0,1-.24.28c-.32.38-.66.75-1,1.13l-.35.39c-.53.58-1.06,1.15-1.61,1.71h0c-.61.63-1.23,1.25-1.87,1.86s-1.28,1.22-1.94,1.82c-.56-.51-1.1-1-1.64-1.53l-.3-.29c-.5-.48-1-1-1.48-1.47-.16-.16-.33-.33-.48-.5l-.3-.31c-.39-.4-.78-.81-1.15-1.22-.57-.61-1.12-1.23-1.67-1.87-.4-.46-.8-.93-1.19-1.41a1.15,1.15,0,0,1-.14-.17c-.2-.23-.39-.47-.57-.7-.43-.53-.85-1.06-1.26-1.6l-.32-.42c-.25-.32-.48-.64-.71-1s-.32-.41-.47-.63a.61.61,0,0,1-.07-.1l-.11-.16c-.21-.29-.42-.58-.62-.88s-.34-.48-.5-.73a5.25,5.25,0,0,1-.33-.49c-.26-.36-.5-.74-.74-1.12A3,3,0,0,1,126,185c-.34-.52-.66-1-1-1.57-.11-.17-.21-.34-.31-.51v-.08c-.17-.3-.35-.59-.51-.89v-.09h0c-.25-.4-.48-.81-.7-1.23h0a2.82,2.82,0,0,1-.21-.38c-.29-.52-.57-1-.84-1.57a.17.17,0,0,1,0-.1,3.17,3.17,0,0,1-.21-.41c-.09-.16-.17-.32-.25-.49-.3-.58-.58-1.16-.86-1.75s-.66-1.43-1-2.15-.55-1.27-.81-1.91c-.11-.26-.22-.53-.32-.79-.26-.65-.52-1.31-.76-2l-1.53-4.14-4.21-1.32-1-.31-.85-.05-.38-.13c-.9-.3-1.79-.63-2.67-1-.54-.2-1.07-.41-1.61-.63l-.54-.22-.33-.14c-.66-.27-1.33-.55-2-.85l-.77-.33-.16-.08-.9-.42-1-.49c-.45-.22-.9-.44-1.34-.68-.75-.38-1.49-.78-2.22-1.18l-1.65-.94c-.53-.31-1.06-.62-1.58-.95-1.1-.67-2.17-1.36-3.22-2.08l-.81-.56-.17-.12L88,151.55c-.36-.25-.72-.52-1.07-.79s-.86-.65-1.28-1-.84-.66-1.26-1-.62-.5-.92-.76-.48-.4-.71-.61-.68-.58-1-.88-.47-.41-.7-.63l-1.74-1.54a.47.47,0,0,0-.1-.1c-.57-.56-1.14-1.13-1.7-1.71a.61.61,0,0,1-.16-.16l-.22-.22c-.08-.07-.14-.15-.21-.22l-.33-.34-.22-.23h0l-.19-.21-.21-.22c-.23-.24-.45-.48-.67-.73l.06-.07c.53-.58,1.06-1.14,1.6-1.7.19-.21.39-.41.59-.6,1.12-1.16,2.27-2.27,3.46-3.35.79-.72,1.6-1.43,2.42-2.12.61-.51,1.23-1,1.85-1.51l.33-.26c.49-.39,1-.77,1.48-1.14l.84-.62,1.47-1.05.81-.56c.55-.38,1.11-.75,1.67-1.11,1-.66,2.07-1.31,3.13-1.92.32-.19.64-.38,1-.56s.92-.52,1.39-.77,1-.51,1.42-.75,1-.49,1.43-.72l1-.49c2.07-1,4.18-1.89,6.35-2.71l1.52-.56c1-.36,2-.71,3.07-1l4.17-1.37,1.53-4.14c.26-.71.54-1.42.82-2.12a3.45,3.45,0,0,1,.14-.34c.3-.75.61-1.48.93-2.21s.69-1.53,1-2.29a19.61,19.61,0,0,1,1-2c.07-.16.16-.32.24-.48.31-.61.63-1.21,1-1.8a2.15,2.15,0,0,1,.14-.26c.33-.61.67-1.21,1-1.81l.2-.34c.33-.54.66-1.08,1-1.62.63-1,1.28-2,2-3l1-1.47.23-.31c.83-1.15,1.7-2.29,2.6-3.4.18-.23.37-.47.57-.7a1.15,1.15,0,0,1,.14-.17c.36-.44.73-.88,1.1-1.31.22-.25.44-.51.67-.76.36-.41.72-.81,1.09-1.21,1-1.12,2.09-2.22,3.19-3.28q.33-.34.69-.66.72-.7,1.47-1.38c.68.62,1.35,1.24,2,1.88,1.25,1.2,2.46,2.44,3.61,3.72l.33.36c.44.49.87,1,1.3,1.48.73.84,1.43,1.69,2.11,2.56.34.42.68.85,1,1.29l.5.66c.46.61.9,1.22,1.33,1.84l.1.13q.73,1,1.44,2.13c.48.73,1,1.48,1.42,2.23s.8,1.33,1.19,2c.52.9,1,1.81,1.5,2.74.36.66.7,1.33,1,2l.09.19c.34.7.67,1.39,1,2.09l.27.58c.27.61.53,1.23.79,1.84.08.2.16.4.25.6.3.73.58,1.47.86,2.21s.61,1.68.9,2.52l1.33,3.93,3.88,1.48c.74.3,1.47.6,2.2.92s1.4.61,2.09.93q3.12,1.45,6.09,3.15l1,.59a83.07,83.07,0,0,1,8.52,5.75c.51.38,1,.77,1.5,1.18.2.14.39.3.58.46.47.38.93.76,1.38,1.17q1.62,1.37,3.18,2.85c.48.44.94.9,1.41,1.36.15.15.31.3.45.46q.63.61,1.23,1.26c.28.29.56.58.83.88S199.15,140,199.32,140.16Z" transform="translate(-0.01 0.01)"/><path class="cls-7" d="M125.32,213a84.06,84.06,0,0,1-68.65,6.52A84,84,0,0,1,64.48,155c.75.77,1.51,1.52,2.28,2.27.6.58,1.22,1.16,1.84,1.72s1.41,1.28,2.13,1.9,1.39,1.2,2.1,1.78l.08.06c.74.6,1.48,1.2,2.24,1.78s1.51,1.15,2.27,1.7,1.38,1,2.08,1.47l.25.18.08.05h0c.73.5,1.46,1,2.2,1.46l2.42,1.51c.82.51,1.63,1,2.46,1.44s1.54.87,2.33,1.29l.6.31c.22.12.44.24.67.35l.08.05.22.1h0l.34.16h0l.09.05h0l.22.11c.21.11.43.23.65.33l.28.14.84.4.84.4.39.18,1.35.61.93.41h0l.4.17.33.14.24.1,1.72.7.31.12c.87.35,1.75.68,2.64,1,.33.79.67,1.57,1,2.34.14.32.29.64.43.95s.17.37.26.55c.15.35.32.69.49,1,.28.58.56,1.16.86,1.74.06.12.12.25.19.37v.07l.24.46c.33.63.66,1.26,1,1.89l.57,1c.27.48.54,1,.82,1.44s.69,1.16,1,1.74.89,1.43,1.35,2.15l.21.33.48.73.06.08.65,1c.4.59.8,1.17,1.21,1.74l1,1.4.62.84c.24.33.49.66.75,1,.08.1.15.2.23.29.25.34.51.67.78,1,.5.62,1,1.24,1.52,1.85.23.29.47.57.71.84l.73.84a.39.39,0,0,0,.08.1l.26.29.49.55.12.13c.32.36.64.71,1,1.06.55.6,1.11,1.2,1.68,1.79s1.16,1.18,1.76,1.76Z" transform="translate(-0.01 0.01)"/><path class="cls-8" d="M208.13,241.26a83.83,83.83,0,0,1-142.26-.92,102.67,102.67,0,0,0,17.93,1.58A100.68,100.68,0,0,0,140,225l.19.15.19-.15A101.91,101.91,0,0,0,208.13,241.26Z" transform="translate(-0.01 0.01)"/><path class="cls-9" d="M221.11,196.52a83.32,83.32,0,0,1-3.79,24.83A84.09,84.09,0,0,1,196.49,224a83,83,0,0,1-41.56-11l.47-.47c.46-.45.91-.9,1.35-1.36l.64-.66c.51-.53,1-1.06,1.5-1.6.64-.69,1.27-1.4,1.89-2.12l.14-.16c.53-.61,1-1.23,1.56-1.85.69-.84,1.37-1.69,2-2.55.53-.69,1-1.38,1.55-2.08s1.06-1.48,1.58-2.22l.17-.25c.49-.73,1-1.46,1.46-2.2.63-1,1.25-2,1.84-3,.74-1.23,1.45-2.47,2.13-3.73.29-.52.57-1.05.84-1.58s.64-1.25,1-1.88l.5-1c.32-.68.64-1.36.95-2q1.23-2.69,2.29-5.46a100.56,100.56,0,0,0,12-6.38l1-.64c1-.63,2-1.27,2.93-1.94.61-.42,1.22-.84,1.82-1.28.43-.3.86-.61,1.28-.93,2.19-1.62,4.32-3.33,6.37-5.14.37-.32.74-.65,1.11-1,1.53-1.36,3-2.78,4.45-4.24L210,155A82.9,82.9,0,0,1,221.11,196.52Z" transform="translate(-0.01 0.01)"/><path class="cls-10" d="M423.64,40.69V237.1H398V40.69Z" transform="translate(-0.01 0.01)"/><path class="cls-11" d="M604.32,82.67V237.1h-25.7V214.26a49.8,49.8,0,0,1-20.43,18.46,63.13,63.13,0,0,1-28.87,6.63,69.38,69.38,0,0,1-32.41-7.47,54.19,54.19,0,0,1-22.68-22.4q-8.31-14.92-8.31-36.35V82.67h25.4v87.08q0,22.82,11.55,35.08t31.56,12.26q20.57,0,32.41-12.68t11.83-36.92V82.67Z" transform="translate(-0.01 0.01)"/><path class="cls-12" d="M705.15,213.42l47.9-130.75h27.34L719.8,237.1H689.93L629.32,82.67h27.61Z" transform="translate(-0.01 0.01)"/><path class="cls-13" d="M833.79,229.77a70.13,70.13,0,0,1-27.62-28q-10-18.18-10-42.13,0-23.67,10.28-41.84a70.89,70.89,0,0,1,28-27.9q17.74-9.72,39.73-9.72t39.74,9.72a71.12,71.12,0,0,1,28,27.76q10.29,18,10.29,42t-10.57,42.13a73.17,73.17,0,0,1-28.6,28,82,82,0,0,1-40,9.86A79.1,79.1,0,0,1,833.79,229.77ZM899,210.61a49.21,49.21,0,0,0,19.59-19.45q7.46-12.94,7.46-31.56T918.75,128q-7.34-13-19.17-19.3a55.32,55.32,0,0,0-51.42,0q-11.7,6.35-18.74,19.3t-7,31.56q0,18.89,6.91,31.85t18.45,19.3a51.81,51.81,0,0,0,25.37,6.34A54.13,54.13,0,0,0,899,210.61Z" transform="translate(-0.01 0.01)"/></svg>