<svg id="Layer_1" data-name="Layer 1" xmlns="http://www.w3.org/2000/svg" viewBox="0 0 488.77 488.77"><defs><style>.cls-1{fill:#a2845e;}</style></defs><path class="cls-1" d="M860.71,155.58a175.71,175.71,0,0,0-29.43,97.94,178.41,178.41,0,0,0,1.38,22.22,146.33,146.33,0,0,1,0-241A178.25,178.25,0,0,0,831.28,57a175.71,175.71,0,0,0,29.43,97.94l-.24.33Z" transform="translate(-769.37 89.13)"/><path class="cls-1" d="M1258.14,155.25a145.39,145.39,0,0,1-74.23,127.3,177.84,177.84,0,0,0-27.09-127l.26-.33-.26-.33A175.55,175.55,0,0,0,1186.28,57a176.39,176.39,0,0,0-2.37-29A145.41,145.41,0,0,1,1258.14,155.25Z" transform="translate(-769.37 89.13)"/><path class="cls-1" d="M988,28.32c-.06.05-.09.1-.14.14-2,2-4,4-5.86,6-.14.14-.28.28-.4.42-.84.9-1.66,1.81-2.46,2.72a7.84,7.84,0,0,0-.54.61c-.89,1-1.78,2.06-2.65,3.1s-1.78,2.15-2.65,3.23l-.16.21c-.82,1-1.6,2-2.39,3.07s-1.81,2.38-2.68,3.6c-.47.67-1,1.33-1.42,2s-1,1.45-1.51,2.18c-.67,1-1.31,1.93-2,2.93l-.36.57c-.8,1.24-1.59,2.5-2.36,3.75-.61,1-1.22,2-1.81,3-.19.33-.38.66-.57,1-.7,1.2-1.38,2.4-2,3.64-.53,1-1,1.94-1.56,2.91-.92,1.76-1.79,3.54-2.65,5.34-.59,1.22-1.15,2.44-1.71,3.68s-1.2,2.7-1.77,4.08c-1.56.56-3.09,1.13-4.61,1.74l-.12,0c-1.39.54-2.77,1.12-4.15,1.7-.33.14-.66.27-1,.43-1.28.54-2.55,1.1-3.8,1.68-.11,0-.21.08-.3.13-1.19.56-2.37,1.12-3.54,1.7a10.4,10.4,0,0,0-1.06.52q-2.1,1-4.15,2.13c-1.22.62-2.41,1.29-3.59,2-.6.33-1.19.66-1.77,1-1.34.75-2.65,1.52-3.94,2.34-1,.57-2,1.18-2.93,1.81-.5.31-1,.63-1.46.94-1.36.89-2.7,1.78-4,2.7q-1.33.92-2.67,1.89c-.45.31-.91.64-1.34,1-1.15.85-2.3,1.71-3.42,2.58-1.32,1-2.61,2-3.9,3.1l-.14.11c-1.1.9-2.18,1.81-3.26,2.75l-.82.7c-1.12,1-2.22,2-3.3,3s-2.16,2-3.21,3c-.24.23-.49.47-.71.7-1.1,1.06-2.18,2.16-3.26,3.26A144.6,144.6,0,0,1,862.67,57a145.56,145.56,0,0,1,5.56-40A146.63,146.63,0,0,1,988,28.32Z" transform="translate(-769.37 89.13)"/><path class="cls-1" d="M1154.9,57a144.66,144.66,0,0,1-19.2,72.47c-.16-.16-.31-.32-.47-.47-1.1-1.12-2.21-2.24-3.35-3.32-.54-.52-1.08-1-1.64-1.55-1.18-1.13-2.39-2.23-3.62-3.33s-2.36-2-3.54-3-2.65-2.2-4-3.26c-1.52-1.24-3.07-2.42-4.64-3.58-.73-.55-1.48-1.09-2.23-1.62a175.86,175.86,0,0,0-26.37-15.67c-.69-.35-1.39-.68-2.11-1s-1.71-.8-2.58-1.18c-1.1-2.86-2.26-5.69-3.52-8.49-.23-.53-.47-1.07-.71-1.59-.39-.85-.77-1.69-1.19-2.53q-1-2.09-2-4.15l-.94-1.83c-.44-.85-.89-1.69-1.34-2.53-.68-1.22-1.36-2.44-2.06-3.66-.51-.87-1-1.74-1.55-2.61-1.07-1.8-2.17-3.58-3.32-5.32-.4-.65-.82-1.27-1.23-1.9-.7-1.05-1.42-2.09-2.15-3.14-.91-1.31-1.83-2.58-2.77-3.85s-1.9-2.55-2.88-3.79-1.74-2.21-2.65-3.29l-.43-.54c-1-1.19-2-2.34-3-3.49s-1.93-2.2-2.93-3.28c-1.2-1.32-2.44-2.61-3.69-3.91-.77-.8-1.56-1.6-2.39-2.38-.26-.28-.53-.54-.81-.82A144.85,144.85,0,0,1,1112,9.14a146.47,146.47,0,0,1,36.32,4.55A145.34,145.34,0,0,1,1154.9,57Z" transform="translate(-769.37 89.13)"/><path class="cls-1" d="M1132.28-21.1A179.21,179.21,0,0,0,1112-22.25,175.68,175.68,0,0,0,1014.1,7.2l-.35-.26-.33.26a175.68,175.68,0,0,0-97.94-29.45,177.6,177.6,0,0,0-31.26,2.76,146,146,0,0,1,124.54-69.64A146.85,146.85,0,0,1,1132.28-21.1Z" transform="translate(-769.37 89.13)"/><path class="cls-1" d="M1116.87,155.25q-.6.7-1.26,1.38c-1.29,1.39-2.59,2.75-3.94,4.08-1.11,1.1-2.23,2.18-3.38,3.24-.85.8-1.71,1.59-2.58,2.34l-.07.07c-.66.57-1.31,1.15-2,1.71,0,.05,0,.05-.05.05a1.44,1.44,0,0,1-.24.21c-.7.61-1.4,1.2-2.11,1.78-.37.31-.75.61-1.12.89-.77.64-1.55,1.25-2.34,1.85s-1.65,1.25-2.49,1.86c-.68.51-1.36,1-2.06,1.48s-1.37,1-2.07,1.45a.34.34,0,0,1-.12.09c-1.35.92-2.71,1.83-4.1,2.7s-2.77,1.73-4.19,2.56c-.69.42-1.41.82-2.12,1.22s-1.68.95-2.53,1.4q-2.41,1.3-4.87,2.51c-1,.47-1.91.94-2.89,1.38s-1.92.89-2.89,1.32c-.35.16-.72.32-1.07.46-.57.26-1.17.5-1.74.73s-1.17.49-1.75.71l-6.71,2.69-2.32,6.85c-.5,1.46-1,2.93-1.57,4.39-.49,1.29-1,2.58-1.5,3.86-.4,1-.82,1.93-1.23,2.89s-.72,1.66-1.1,2.5c-.6,1.29-1.21,2.56-1.82,3.85-.55,1.11-1.11,2.23-1.7,3.33-1.5,2.88-3.11,5.68-4.78,8.44-.67,1.06-1.33,2.13-2,3.17-.2.32-.39.63-.6.93-.63.95-1.27,1.91-1.93,2.86-1,1.39-2,2.77-3,4.13-.34.45-.68.92-1.05,1.38-1.4,1.83-2.83,3.62-4.34,5.38-.39.47-.79.94-1.21,1.42a5.82,5.82,0,0,1-.41.48c-.56.67-1.16,1.31-1.77,2-.19.23-.4.46-.61.68-.92,1-1.84,2-2.8,3l-.06,0c-1.06,1.1-2.14,2.18-3.26,3.24s-2.23,2.13-3.38,3.17c-1-.89-1.92-1.76-2.86-2.66-.17-.18-.35-.33-.52-.51-.87-.84-1.74-1.69-2.58-2.56-.28-.28-.58-.58-.84-.87s-.35-.35-.52-.54c-.68-.7-1.36-1.42-2-2.13-1-1.07-1.95-2.15-2.91-3.26q-1.05-1.2-2.07-2.46a1.81,1.81,0,0,1-.25-.3c-.35-.4-.68-.82-1-1.22-.75-.92-1.48-1.85-2.2-2.79l-.56-.73c-.43-.56-.83-1.12-1.23-1.67-.28-.35-.56-.72-.82-1.1a1.4,1.4,0,0,1-.13-.18,2.26,2.26,0,0,1-.19-.28c-.36-.5-.73-1-1.08-1.53s-.59-.84-.87-1.27a10,10,0,0,1-.58-.86c-.45-.63-.87-1.29-1.29-1.95a6.07,6.07,0,0,1-.47-.73c-.59-.91-1.15-1.82-1.71-2.74-.19-.3-.36-.59-.54-.89l-.08-.14c-.3-.52-.61-1-.89-1.55,0,0,0-.11-.09-.16l-.05-.08c-.44-.7-.84-1.42-1.22-2.15l0-.05a4.73,4.73,0,0,1-.36-.66c-.51-.91-1-1.82-1.47-2.74a.76.76,0,0,1-.09-.18,5.91,5.91,0,0,1-.36-.71c-.16-.28-.3-.56-.44-.86-.52-1-1-2-1.5-3.05-.57-1.23-1.15-2.49-1.71-3.75-.48-1.09-1-2.21-1.41-3.33-.19-.45-.38-.92-.56-1.37-.45-1.14-.9-2.29-1.32-3.44l-2.67-7.22-7.34-2.3c-.56-.17-1.12-.35-1.67-.54-.35-.1-.68-.23-1-.33l-.67-.23q-2.36-.78-4.65-1.67c-.94-.35-1.87-.72-2.81-1.1-.31-.12-.63-.24-.94-.38s-.39-.16-.58-.25c-1.15-.47-2.32-1-3.45-1.48l-1.45-.64-.28-.14c-.52-.23-1-.49-1.56-.74s-1.19-.55-1.77-.85c-.78-.38-1.57-.77-2.33-1.19-1.31-.66-2.6-1.36-3.87-2.05-1-.54-1.92-1.08-2.88-1.64s-1.85-1.08-2.76-1.66c-1.91-1.17-3.78-2.37-5.61-3.63l-1.41-1-.3-.21c-.75-.52-1.48-1-2.21-1.59s-1.26-.9-1.87-1.38-1.5-1.13-2.23-1.72-1.46-1.15-2.2-1.76c-.54-.44-1.08-.87-1.6-1.33s-.84-.7-1.24-1.06c-.59-.51-1.18-1-1.76-1.54-.4-.34-.82-.71-1.22-1.09-1-.89-1.94-1.8-2.9-2.69a.69.69,0,0,0-.17-.17c-1-1-2-2-3-3a.91.91,0,0,1-.28-.27c-.14-.13-.26-.25-.39-.39s-.24-.26-.36-.38-.39-.39-.58-.59-.26-.27-.38-.41h0l0,0,0,0c-.11-.12-.23-.24-.33-.36l-.37-.38c-.4-.42-.78-.84-1.17-1.28a1.31,1.31,0,0,0,.11-.12c.92-1,1.85-2,2.79-3,.33-.37.68-.72,1-1,1.95-2,3.95-4,6-5.84q2.07-1.89,4.22-3.7c1.06-.89,2.14-1.78,3.22-2.63l.58-.45c.85-.68,1.71-1.35,2.58-2l1.46-1.08c.86-.63,1.71-1.24,2.57-1.83.47-.33.94-.67,1.41-1,1-.66,1.94-1.31,2.91-1.94,1.8-1.15,3.61-2.28,5.46-3.34.56-.33,1.12-.67,1.69-1,.8-.45,1.61-.91,2.42-1.34s1.66-.89,2.48-1.31,1.66-.85,2.49-1.26c.58-.29,1.17-.57,1.77-.85,3.6-1.73,7.3-3.3,11.07-4.72.87-.34,1.76-.67,2.65-1,1.76-.63,3.55-1.24,5.35-1.8l7.34-2.3,2.67-7.22c.45-1.24.94-2.47,1.43-3.69.07-.21.16-.4.24-.6.53-1.3,1.07-2.58,1.62-3.85s1.21-2.67,1.84-4,1.15-2.39,1.76-3.56c.12-.28.28-.56.41-.84.55-1.06,1.1-2.11,1.7-3.14.07-.13.14-.29.24-.45.58-1.06,1.17-2.11,1.78-3.15l.35-.6q.86-1.41,1.74-2.82c1.1-1.76,2.23-3.51,3.42-5.23.59-.87,1.18-1.73,1.79-2.57.14-.17.27-.36.41-.54,1.44-2,3-4,4.53-5.92q.46-.62,1-1.23a2.26,2.26,0,0,1,.25-.29c.62-.77,1.27-1.54,1.91-2.29.39-.43.77-.89,1.17-1.32.63-.72,1.26-1.41,1.9-2.11,1.8-2,3.65-3.87,5.57-5.72.38-.4.78-.78,1.2-1.15.84-.82,1.69-1.62,2.56-2.41,1.19,1.08,2.36,2.16,3.49,3.28q3.27,3.13,6.29,6.49l.58.62c.77.86,1.52,1.71,2.27,2.59,1.27,1.46,2.49,2.94,3.67,4.46q.9,1.1,1.77,2.25c.29.38.57.77.87,1.15.8,1.06,1.57,2.13,2.32,3.21a2.65,2.65,0,0,0,.17.22c.86,1.22,1.69,2.46,2.51,3.72s1.68,2.58,2.48,3.89c.7,1.15,1.39,2.32,2.07,3.5q1.37,2.36,2.62,4.78c.63,1.15,1.22,2.32,1.79,3.49l.16.33c.59,1.22,1.17,2.42,1.71,3.64.16.35.31.68.47,1,.47,1.07.92,2.15,1.38,3.21.14.35.28.7.43,1,.53,1.27,1,2.56,1.5,3.85.54,1.46,1.07,2.93,1.57,4.39l2.32,6.86,6.71,2.66c1.29.53,2.57,1,3.84,1.61s2.44,1.06,3.64,1.62q5.44,2.54,10.62,5.49c.6.33,1.19.68,1.76,1a142.15,142.15,0,0,1,14.86,10c.89.66,1.76,1.34,2.62,2.05.34.25.68.53,1,.81.82.66,1.62,1.32,2.4,2,1.89,1.58,3.73,3.24,5.55,5,.83.76,1.64,1.57,2.46,2.37.26.26.54.52.78.8.73.71,1.45,1.45,2.15,2.2.48.5,1,1,1.44,1.53C1116.33,154.62,1116.61,154.94,1116.87,155.25Z" transform="translate(-769.37 89.13)"/><path class="cls-1" d="M987.93,282.17a146.5,146.5,0,0,1-119.7,11.39,146.58,146.58,0,0,1,13.62-112.48c1.3,1.34,2.63,2.65,4,3.95,1,1,2.13,2,3.21,3,1.22,1.14,2.46,2.23,3.71,3.32s2.43,2.09,3.67,3.1l.14.1c1.29,1,2.58,2.1,3.9,3.11s2.63,2,4,3,2.41,1.73,3.63,2.56l.43.32a.55.55,0,0,1,.14.09l.07,0,.09.05c1.27.87,2.54,1.73,3.83,2.55s2.79,1.77,4.22,2.63,2.85,1.69,4.29,2.51,2.69,1.52,4.07,2.25l1,.54c.39.21.77.42,1.17.61a1.1,1.1,0,0,0,.14.09l.38.17.06,0c.2.08.4.19.59.27,0,0,0,0,.05,0a1.29,1.29,0,0,1,.16.09h0a2.25,2.25,0,0,0,.38.19c.36.19.75.4,1.13.57l.49.25,1.46.7q.74.36,1.47.69l.68.32,2.35,1.06,1.63.72.08,0,.7.3.58.24.41.18,3,1.22c.18.07.35.14.54.2,1.52.62,3,1.19,4.61,1.75q.86,2.07,1.77,4.08c.25.56.51,1.11.75,1.66.14.31.3.64.46,1,.26.61.56,1.21.85,1.8.49,1,1,2,1.5,3,.11.21.21.44.33.65l.06.12c.13.28.27.54.41.8.58,1.1,1.15,2.2,1.75,3.3l1,1.78c.47.83.94,1.67,1.43,2.51.59,1,1.2,2,1.81,3,.77,1.26,1.56,2.5,2.36,3.75l.36.58c.28.41.56.85.84,1.27a.67.67,0,0,0,.11.14c.36.56.75,1.13,1.13,1.69.7,1,1.39,2,2.11,3,.59.82,1.17,1.64,1.78,2.44q.52.74,1.08,1.47c.42.57.85,1.15,1.31,1.71.14.17.26.35.4.5.43.6.89,1.17,1.36,1.75.87,1.08,1.76,2.16,2.65,3.22.4.51.82,1,1.24,1.47s.83,1,1.27,1.46a.79.79,0,0,0,.14.18l.45.5.86,1,.21.23c.55.63,1.11,1.24,1.69,1.85,1,1,1.93,2.09,2.93,3.12s2,2.05,3.06,3.07Z" transform="translate(-769.37 89.13)"/><path class="cls-1" d="M1132.27,331.6a146.15,146.15,0,0,1-248-1.6,177.6,177.6,0,0,0,31.26,2.75,175.68,175.68,0,0,0,97.94-29.45l.33.26.33-.26a177.79,177.79,0,0,0,118.19,28.3Z" transform="translate(-769.37 89.13)"/><path class="cls-1" d="M1154.9,253.52a145.41,145.41,0,0,1-6.54,43.3,146.94,146.94,0,0,1-36.32,4.55,144.8,144.8,0,0,1-72.47-19.18c.28-.28.56-.54.82-.82.81-.79,1.59-1.57,2.36-2.37l1.11-1.15c.89-.93,1.77-1.85,2.62-2.79,1.12-1.21,2.21-2.44,3.29-3.7a3.53,3.53,0,0,0,.25-.28c.92-1.06,1.83-2.14,2.72-3.22,1.2-1.47,2.39-2.95,3.54-4.45.92-1.2,1.83-2.41,2.7-3.63s1.85-2.58,2.76-3.87c.1-.16.19-.3.29-.43.86-1.28,1.71-2.55,2.55-3.84,1.1-1.69,2.18-3.42,3.21-5.16,1.29-2.15,2.52-4.31,3.71-6.51.51-.9,1-1.83,1.47-2.75.57-1.08,1.11-2.18,1.65-3.28.3-.59.59-1.17.87-1.76.56-1.18,1.12-2.37,1.66-3.57,1.43-3.12,2.75-6.3,4-9.52a176.87,176.87,0,0,0,21-11.13l1.77-1.11c1.73-1.1,3.44-2.22,5.11-3.39,1.07-.73,2.13-1.46,3.18-2.23.75-.52,1.5-1.06,2.23-1.62q5.73-4.23,11.11-9c.64-.56,1.29-1.14,1.93-1.73,2.67-2.37,5.25-4.85,7.76-7.39.16-.16.31-.32.47-.47A144.57,144.57,0,0,1,1154.9,253.52Z" transform="translate(-769.37 89.13)"/></svg>