<svg id="Layer_1" data-name="Layer 1" xmlns="http://www.w3.org/2000/svg" viewBox="0 0 804.23 316.33"><defs><style>.cls-1{fill:#231f20;}</style></defs><path class="cls-1" d="M35.48,330.6a101.64,101.64,0,0,1-83.84-44,101.88,101.88,0,0,1,0-115.53,101.66,101.66,0,0,1,83.84-44,100.82,100.82,0,0,1,61.83,20.93l9.33,7.15-9.33,7.14a83.86,83.86,0,0,0-27.73,37.52l-1.53,4.14-4.21,1.32A83.25,83.25,0,0,0,27,228.8a83.25,83.25,0,0,0,36.87,23.6l4.21,1.32,1.53,4.14a83.91,83.91,0,0,0,27.73,37.52l9.33,7.14-9.33,7.15A100.82,100.82,0,0,1,35.48,330.6Zm0-185.6a83.8,83.8,0,1,0,0,167.6,83,83,0,0,0,41.56-11A101.76,101.76,0,0,1,54.3,268.17a101.32,101.32,0,0,1-46.19-33.9L3.93,228.8l4.18-5.47A101.41,101.41,0,0,1,54.3,189.42,101.87,101.87,0,0,1,77,156,83,83,0,0,0,35.48,145Z" transform="translate(66.32 -70.64)"/><path class="cls-1" d="M148.21,330.6a100.85,100.85,0,0,1-61.84-20.93L77,302.52l9.33-7.14a83.67,83.67,0,0,0,28.48-39.62l1.33-3.93,3.85-1.54a83.8,83.8,0,0,0,31-21.49,83.94,83.94,0,0,0-31-21.5l-3.85-1.53-1.33-3.93a83.62,83.62,0,0,0-28.48-39.62L77,155.08l9.33-7.15a101.94,101.94,0,0,1,92.38-16.26A102.66,102.66,0,0,1,229.86,168a101.76,101.76,0,0,1-81.65,162.6Zm-41.56-29a83.8,83.8,0,1,0,0-145.6,101.23,101.23,0,0,1,23.84,36.19,102,102,0,0,1,39.37,31.14L174,228.8l-4.18,5.47a102,102,0,0,1-39.37,31.14A101.31,101.31,0,0,1,106.65,301.6Z" transform="translate(66.32 -70.64)"/><path class="cls-1" d="M15.26,243.6l-7.15-9.33A101.79,101.79,0,0,1,89,70.64a101.73,101.73,0,0,1,101.81,101.8,100.79,100.79,0,0,1-20.94,61.83l-7.15,9.33-7.14-9.33a83.94,83.94,0,0,0-35.53-27l-3.85-1.53-1.33-3.93a83.52,83.52,0,0,0-23-35.06,83.78,83.78,0,0,0-22.26,33l-1.53,4.14-4.21,1.32a83.4,83.4,0,0,0-41.43,29.07Zm115.23-51.41A101.7,101.7,0,0,1,161.78,214a84,84,0,0,0,5.83-70.62A83.79,83.79,0,0,0,5.19,172.44a83,83,0,0,0,11,41.55A101.09,101.09,0,0,1,54.3,189.42a101.82,101.82,0,0,1,32.07-41.49l5.47-4.19,5.47,4.19A101.49,101.49,0,0,1,130.49,192.19Z" transform="translate(66.32 -70.64)"/><path class="cls-1" d="M91.84,313.86l-5.47-4.19a101.78,101.78,0,0,1-32.07-41.5,101.32,101.32,0,0,1-46.19-33.9L3.93,228.8l4.18-5.47A101.41,101.41,0,0,1,54.3,189.42a101.82,101.82,0,0,1,32.07-41.49l5.47-4.19,5.47,4.19a101.49,101.49,0,0,1,33.18,44.26,102,102,0,0,1,39.37,31.14L174,228.8l-4.18,5.47a102,102,0,0,1-39.37,31.14,101.49,101.49,0,0,1-33.18,44.26ZM27,228.8a83.25,83.25,0,0,0,36.87,23.6l4.21,1.32,1.53,4.14a83.68,83.68,0,0,0,22.26,32.95,83.42,83.42,0,0,0,23-35.05l1.33-3.93,3.85-1.54a83.8,83.8,0,0,0,31-21.49,83.94,83.94,0,0,0-31-21.5l-3.85-1.53-1.33-3.93a83.52,83.52,0,0,0-23-35.06,83.78,83.78,0,0,0-22.26,33l-1.53,4.14-4.21,1.32A83.25,83.25,0,0,0,27,228.8Z" transform="translate(66.32 -70.64)"/><path class="cls-1" d="M89,387A101.72,101.72,0,0,1-12.81,285.16,100.83,100.83,0,0,1,8.11,223.33L15.26,214l7.15,9.34A83.4,83.4,0,0,0,63.84,252.4l4.21,1.32,1.53,4.14a83.68,83.68,0,0,0,22.26,32.95,83.42,83.42,0,0,0,23-35.05l1.33-3.93,3.85-1.54a83.92,83.92,0,0,0,35.53-27L162.7,214l7.15,9.34a101.89,101.89,0,0,1,14.64,97.15A102.23,102.23,0,0,1,89,387ZM16.19,243.61a84.08,84.08,0,0,0-6.57,68.51,83.81,83.81,0,0,0,163.17-27,82.94,82.94,0,0,0-11-41.56,101.88,101.88,0,0,1-31.29,21.81,101.49,101.49,0,0,1-33.18,44.26l-5.47,4.19-5.47-4.19a101.78,101.78,0,0,1-32.07-41.5A101.07,101.07,0,0,1,16.19,243.61Z" transform="translate(66.32 -70.64)"/><path class="cls-1" d="M367.64,159.13V296.7h-18V159.13Z" transform="translate(66.32 -70.64)"/><path class="cls-1" d="M494.15,188.53V296.7h-18v-16a35,35,0,0,1-14.31,12.93,44.22,44.22,0,0,1-20.23,4.63A48.49,48.49,0,0,1,419,293a37.92,37.92,0,0,1-15.88-15.69q-5.83-10.46-5.83-25.46V188.53H415v61q0,16,8.09,24.58t22.11,8.58q14.4,0,22.69-8.88t8.29-25.86V188.53Z" transform="translate(66.32 -70.64)"/><path class="cls-1" d="M564.81,280.12l33.56-91.59h19.14L575.08,296.7H554.15L511.72,188.53h19.34Z" transform="translate(66.32 -70.64)"/><path class="cls-1" d="M654.91,291.56a49.14,49.14,0,0,1-19.34-19.64q-7-12.72-7-29.5,0-16.59,7.21-29.31a49.61,49.61,0,0,1,19.64-19.54,60.25,60.25,0,0,1,55.65,0A49.81,49.81,0,0,1,730.7,213q7.2,12.63,7.21,29.41t-7.4,29.5a51.31,51.31,0,0,1-20,19.64,57.37,57.37,0,0,1-28,6.91A55.32,55.32,0,0,1,654.91,291.56Zm45.69-13.42a34.47,34.47,0,0,0,13.72-13.62q5.23-9.07,5.23-22.1t-5.13-22.11A33.65,33.65,0,0,0,701,206.79a38.75,38.75,0,0,0-36,0,32.59,32.59,0,0,0-13.13,13.52q-4.94,9.09-4.93,22.11,0,13.22,4.83,22.3a32.22,32.22,0,0,0,12.93,13.52,36.35,36.35,0,0,0,17.77,4.44A37.88,37.88,0,0,0,700.6,278.14Z" transform="translate(66.32 -70.64)"/></svg>