<svg id="Layer_1" data-name="Layer 1" xmlns="http://www.w3.org/2000/svg" viewBox="0 0 952.2 280.36"><defs><style>.cls-1{fill:#a1835e;}</style></defs><path class="cls-1" d="M52.4,140.3a101.07,101.07,0,0,0-16.9,56.2,106.91,106.91,0,0,0,.8,12.7A83.91,83.91,0,0,1,36.3,71a108.26,108.26,0,0,0-.8,12.7,100.51,100.51,0,0,0,16.9,56.2l-.1.2Z" transform="translate(0 0.04)"/><path class="cls-1" d="M280.3,140.2a83.32,83.32,0,0,1-42.6,73,102.1,102.1,0,0,0-15.5-72.8l.1-.2-.1-.2a101.71,101.71,0,0,0,15.5-72.8A83.32,83.32,0,0,1,280.3,140.2Z" transform="translate(0 0.04)"/><path class="cls-1" d="M125.3,67.4h0c-1.2,1.2-2.3,2.4-3.4,3.5l-.2.2c-.5.5-.9,1-1.4,1.6a1.38,1.38,0,0,0-.3.4l-1.5,1.8c-.5.6-1,1.2-1.5,1.9l-.1.1c-.5.6-.9,1.2-1.4,1.8s-1,1.4-1.5,2.1c-.3.4-.6.8-.8,1.1s-.6.8-.9,1.2a12.55,12.55,0,0,0-1.1,1.7l-.2.3a23.92,23.92,0,0,0-1.3,2.1c-.4.7-.7,1.2-1,1.7l-.3.6-1.2,2.1c-.3.6-.6,1.1-.9,1.7-.5,1-1,2-1.5,3.1-.3.7-.7,1.4-1,2.1s-.7,1.6-1,2.3a20,20,0,0,0-2.6,1h-.1a24.43,24.43,0,0,0-2.4,1l-.7.2a21.4,21.4,0,0,0-2.2,1l-.2.1-2,1-.6.3-2.4,1.2c-.8.4-1.4.7-2.1,1.1-.3.2-.7.4-1,.6-.8.4-1.5.9-2.3,1.3-.6.3-1.1.7-1.7,1l-.8.5c-.8.5-1.5,1-2.3,1.6-.5.4-1,.7-1.5,1.1l-.8.6c-.7.5-1.3,1-2,1.5s-1.5,1.2-2.2,1.8l-.1.1c-.6.5-1.2,1-1.9,1.6l-.5.4c-.6.6-1.3,1.1-1.9,1.7s-1.2,1.1-1.8,1.7l-.4.4-1.9,1.9A84,84,0,0,1,56.6,61a83.28,83.28,0,0,1,27.1-4.5A80.62,80.62,0,0,1,125.3,67.4Z" transform="translate(0 0.04)"/><path class="cls-1" d="M221.1,83.8a83.24,83.24,0,0,1-11,41.6l-.3-.3-1.9-1.9-.9-.9c-.7-.6-1.4-1.3-2.1-1.9s-1.4-1.2-2-1.8a23.28,23.28,0,0,0-2.3-1.9c-.8-.6-1.8-1.4-2.7-2-.4-.3-.9-.6-1.3-.9a109.38,109.38,0,0,0-15.1-9l-1.2-.6-1.5-.7c-.6-1.6-1.3-3.3-2-4.9-.1-.3-.3-.6-.4-.9a6.11,6.11,0,0,0-.7-1.4l-1.2-2.4-.5-1.1a6.38,6.38,0,0,0-.8-1.4L172,89.3l-.9-1.5c-.6-1-1.2-2.1-1.9-3.1-.2-.4-.5-.7-.7-1.1l-1.2-1.8a17.68,17.68,0,0,0-1.6-2.2c-.6-.7-1.1-1.5-1.7-2.2s-1-1.3-1.5-1.9l-.2-.3-1.7-2c-.6-.7-1.1-1.3-1.7-1.9s-1.4-1.5-2.1-2.2a18.48,18.48,0,0,0-1.4-1.4l-.5-.5a84,84,0,0,1,62.3-8.4A82.57,82.57,0,0,1,221.1,83.8Z" transform="translate(0 0.04)"/><path class="cls-1" d="M208.1,39a112.82,112.82,0,0,0-11.6-.7,100.28,100.28,0,0,0-56.2,16.9l-.2-.1-.2.1A100.19,100.19,0,0,0,83.8,38.3a97.67,97.67,0,0,0-17.9,1.6A83.76,83.76,0,0,1,208.1,39Z" transform="translate(0 0.04)"/><path class="cls-1" d="M199.3,140.2c-.2.3-.5.5-.7.8a25,25,0,0,1-2.3,2.3,17,17,0,0,0-1.9,1.9,17.38,17.38,0,0,1-1.5,1.3h0a11,11,0,0,0-1.1,1h0l-.1.1a10.59,10.59,0,0,1-1.2,1,2.65,2.65,0,0,1-.6.5c-.4.4-.9.7-1.3,1.1a7.55,7.55,0,0,0-1.4,1.1c-.5.4-.8.6-1.2.9a8.34,8.34,0,0,1-1.2.8h-.1c-.8.5-1.6,1.1-2.4,1.6l-2.4,1.5c-.4.2-.8.5-1.2.7s-1,.5-1.5.8a24.37,24.37,0,0,1-2.8,1.4c-.6.3-1.1.5-1.7.8l-1.7.8-.6.3c-.3.1-.7.3-1,.4l-1,.4-3.9,1.5-1.3,3.9c-.3.8-.6,1.7-.9,2.5s-.6,1.5-.9,2.2-.5,1.1-.7,1.7-.4.9-.6,1.4c-.3.7-.7,1.5-1,2.2a11.4,11.4,0,0,1-1,1.9c-.9,1.6-1.8,3.3-2.7,4.8l-1.2,1.8a2.19,2.19,0,0,1-.3.5c-.4.5-.7,1.1-1.1,1.6-.5.8-1.1,1.6-1.7,2.4-.2.3-.4.5-.6.8-.8,1-1.6,2.1-2.5,3.1a5,5,0,0,1-.7.8c-.1.1-.2.2-.2.3a11,11,0,0,1-1,1.1l-.4.4c-.5.6-1.1,1.1-1.6,1.7h0l-1.9,1.9c-.6.6-1.3,1.2-1.9,1.8-.6-.5-1.1-1-1.6-1.5l-.3-.3-1.5-1.5-.5-.5-.3-.3a12,12,0,0,1-1.1-1.2c-.6-.6-1.1-1.2-1.7-1.9-.4-.5-.8-.9-1.2-1.4-.1-.1-.1-.1-.1-.2-.2-.2-.4-.5-.6-.7a18.26,18.26,0,0,0-1.3-1.6l-.3-.4a8.65,8.65,0,0,1-.7-1,1.58,1.58,0,0,0-.5-.6.1.1,0,0,0-.1-.1l-.1-.2-.6-.9a4.23,4.23,0,0,0-.5-.7c-.1-.2-.2-.3-.3-.5a6.73,6.73,0,0,1-.7-1.1c-.1-.1-.2-.3-.3-.4-.3-.5-.7-1-1-1.6-.1-.2-.2-.3-.3-.5v-.1c-.2-.3-.3-.6-.5-.9v-.1h0c-.2-.4-.5-.8-.7-1.2h0c-.1-.1-.1-.2-.2-.4a8,8,0,0,1-.8-1.6v-.1a.76.76,0,0,1-.2-.4c-.1-.2-.2-.3-.2-.5l-.9-1.8c-.3-.6-.7-1.4-1-2.1s-.6-1.3-.8-1.9c-.1-.3-.2-.5-.3-.8-.3-.6-.5-1.3-.8-2l-1.5-4.1-4.2-1.3-1-.3h-.9l-.4-.1c-.9-.3-1.8-.6-2.7-1-.5-.2-1.1-.4-1.6-.6l-.5-.2-.3-.1c-.7-.3-1.3-.6-2-.9l-.8-.3-.2-.1c-.3-.1-.6-.3-.9-.4l-1-.5a8.26,8.26,0,0,1-1.3-.7c-.8-.4-1.5-.8-2.2-1.2l-1.7-.9c-.5-.3-1.1-.6-1.6-.9-1.1-.7-2.2-1.4-3.2-2.1l-.8-.6-.2-.1-1.3-.9a7.63,7.63,0,0,1-1.1-.8,11.32,11.32,0,0,1-1.3-1,6.42,6.42,0,0,0-1.3-1,3.63,3.63,0,0,1-.9-.8c-.3-.3-.5-.4-.7-.6s-.7-.6-1-.9-.5-.4-.7-.6l-1.7-1.5-.1-.1-1.7-1.7c-.1,0-.1-.1-.2-.2l-.2-.2-.2-.2-.3-.3-.2-.2h0l-.2-.2-.2-.2-.7-.7.1-.1c.5-.6,1.1-1.1,1.6-1.7l.6-.6c1.1-1.2,2.3-2.3,3.5-3.4l2.4-2.1,1.8-1.5.3-.3a14.31,14.31,0,0,1,1.5-1.1l.8-.6c.5-.4,1-.7,1.5-1.1l.8-.6a16.29,16.29,0,0,1,1.7-1.1c1-.7,2.1-1.3,3.1-1.9a8.79,8.79,0,0,1,1-.6c.4-.2.9-.5,1.4-.8s1-.5,1.4-.8a6.11,6.11,0,0,1,1.4-.7l1-.5q3.15-1.5,6.3-2.7l1.5-.6a28.11,28.11,0,0,1,3.1-1l4.2-1.4,1.5-4.1c.3-.7.5-1.4.8-2.1,0-.1.1-.2.1-.3.3-.8.6-1.5.9-2.2s.7-1.5,1-2.3a18.58,18.58,0,0,1,1-2c.1-.2.2-.3.2-.5a16.18,16.18,0,0,1,1-1.8c0-.1.1-.2.1-.3.3-.6.7-1.2,1-1.8l.2-.3c.3-.5.7-1.1,1-1.6.6-1,1.3-2,2-3,.3-.5.7-1,1-1.5l.2-.3c.8-1.1,1.7-2.3,2.6-3.4.2-.2.4-.5.6-.7,0-.1.1-.1.1-.2.4-.4.7-.9,1.1-1.3.2-.2.4-.5.7-.8s.7-.8,1.1-1.2c1-1.1,2.1-2.2,3.2-3.3a4.62,4.62,0,0,0,.7-.7c.5-.5,1-.9,1.5-1.4a18,18,0,0,1,2,1.9,41.73,41.73,0,0,1,3.6,3.7l.3.4c.4.5.9,1,1.3,1.5.7.8,1.4,1.7,2.1,2.6.3.4.7.9,1,1.3l.5.7a20.28,20.28,0,0,1,1.3,1.8l.1.1c.5.7,1,1.4,1.4,2.1s1,1.5,1.4,2.2.8,1.3,1.2,2l1.5,2.7a18.65,18.65,0,0,1,1,2l.1.2c.3.7.7,1.4,1,2.1l.3.6c.3.6.5,1.2.8,1.8a1.42,1.42,0,0,1,.2.6c.3.7.6,1.5.9,2.2s.6,1.7.9,2.5l1.3,3.9,3.9,1.5c.7.3,1.5.6,2.2.9l2.1.9c2.1,1,4.1,2,6.1,3.1l1,.6a70.76,70.76,0,0,1,8.5,5.8l1.5,1.2a2.65,2.65,0,0,1,.6.5c.5.4.9.8,1.4,1.2,1.1.9,2.1,1.9,3.2,2.9a18.48,18.48,0,0,1,1.4,1.4l.5.5a15.38,15.38,0,0,1,1.2,1.3,6.47,6.47,0,0,1,.8.9A1.2,1.2,0,0,1,199.3,140.2Z" transform="translate(0 0.04)"/><path class="cls-1" d="M125.3,212.9a83.81,83.81,0,0,1-68.6,6.5,84.45,84.45,0,0,1,7.8-64.5l2.3,2.3c.6.6,1.2,1.2,1.8,1.7s1.4,1.3,2.1,1.9l2.1,1.8.1.1c.7.6,1.5,1.2,2.2,1.8s1.5,1.1,2.3,1.7,1.4,1,2.1,1.5l.2.2.1.1h0c.7.5,1.5,1,2.2,1.5s1.6,1,2.4,1.5a20.13,20.13,0,0,0,2.5,1.4c.9.4,1.5.9,2.3,1.3l.6.3a5.74,5.74,0,0,1,.7.4l.1.1.2.1h0l.3.2h0l.1.1h0l.2.1a4.88,4.88,0,0,0,.7.3l.3.1.8.4.8.4.4.2,1.3.6.9.4h0l.4.2.3.1.2.1,1.7.7.3.1c.9.4,1.8.7,2.6,1,.3.8.7,1.6,1,2.3.1.3.3.6.4.9a1.07,1.07,0,0,0,.3.5,3.13,3.13,0,0,0,.5,1c.3.6.6,1.2.9,1.7.1.1.1.2.2.4v.1l.2.5c.3.6.7,1.3,1,1.9l.6,1c.3.5.5,1,.8,1.4s.7,1.2,1,1.7.9,1.4,1.3,2.1l.2.3.5.7.1.1.7,1c.4.6.8,1.2,1.2,1.7a12.13,12.13,0,0,1,1,1.4l.6.8a7,7,0,0,0,.8,1c.1.1.2.2.2.3a7,7,0,0,0,.8,1c.5.6,1,1.2,1.5,1.9a5.72,5.72,0,0,0,.7.8c.2.2.5.6.7.8a.1.1,0,0,0,.1.1l.3.3.5.5.1.1a10,10,0,0,0,1,1.1c.6.6,1.1,1.2,1.7,1.8l1.8,1.8Z" transform="translate(0 0.04)"/><path class="cls-1" d="M208.1,241.3a83.75,83.75,0,0,1-142.2-1,97.67,97.67,0,0,0,17.9,1.6A100.51,100.51,0,0,0,140,225l.2.1.2-.1A101.8,101.8,0,0,0,208.1,241.3Z" transform="translate(0 0.04)"/><path class="cls-1" d="M221.1,196.5a83.35,83.35,0,0,1-3.8,24.8,85.89,85.89,0,0,1-20.8,2.6,83.24,83.24,0,0,1-41.6-11l.5-.5,1.4-1.4.6-.7c.5-.5,1-1.1,1.5-1.6.6-.7,1.3-1.4,1.9-2.1l.1-.2c.5-.6,1-1.2,1.6-1.9s1.4-1.7,2-2.5,1-1.4,1.6-2.1,1.1-1.5,1.6-2.2l.2-.2c.5-.7,1-1.5,1.5-2.2l1.8-3c.7-1.2,1.5-2.5,2.1-3.7a8,8,0,0,0,.8-1.6,11.76,11.76,0,0,1,1-1.9c.2-.3.3-.7.5-1a12.44,12.44,0,0,1,1-2c.8-1.8,1.6-3.6,2.3-5.5a115.28,115.28,0,0,0,12-6.4l1-.6c1-.6,2-1.3,2.9-1.9a20.28,20.28,0,0,0,1.8-1.3c.4-.3.9-.6,1.3-.9,2.2-1.6,4.3-3.3,6.4-5.1.4-.3.7-.7,1.1-1,1.5-1.4,3-2.8,4.4-4.2l.3-.3A84.28,84.28,0,0,1,221.1,196.5Z" transform="translate(0 0.04)"/><path class="cls-1" d="M423.6,40.7V237.1H398V40.7Z" transform="translate(0 0.04)"/><path class="cls-1" d="M604.3,82.7V237.1H578.6V214.3a50.6,50.6,0,0,1-20.4,18.5,63.11,63.11,0,0,1-28.9,6.6,69.08,69.08,0,0,1-32.4-7.5,54.46,54.46,0,0,1-22.7-22.4c-5.5-10-8.3-22.1-8.3-36.4V82.7h25.4v87.1c0,15.2,3.9,26.9,11.5,35.1s18.2,12.3,31.6,12.3c13.7,0,24.5-4.2,32.4-12.7s11.8-20.8,11.8-36.9V82.7Z" transform="translate(0 0.04)"/><path class="cls-1" d="M705.2,213.4,753.1,82.6h27.3L719.8,237H689.9L629.3,82.7h27.6Z" transform="translate(0 0.04)"/><path class="cls-1" d="M833.8,229.8a69.52,69.52,0,0,1-27.6-28c-6.7-12.1-10-26.2-10-42.1s3.4-29.7,10.3-41.8a70.89,70.89,0,0,1,28-27.9c11.8-6.5,25.1-9.7,39.7-9.7s27.9,3.2,39.7,9.7a70.64,70.64,0,0,1,28,27.8c6.9,12,10.3,26,10.3,42s-3.5,30-10.6,42.1a72.65,72.65,0,0,1-28.6,28,83.18,83.18,0,0,1-40,9.9C858.6,239.6,845.5,236.3,833.8,229.8ZM899,210.6a49.67,49.67,0,0,0,19.6-19.5c5-8.6,7.5-19.1,7.5-31.6s-2.4-22.9-7.3-31.6-11.3-15.1-19.2-19.3a55,55,0,0,0-51.4,0c-7.8,4.2-14,10.7-18.7,19.3s-7,19.2-7,31.6c0,12.6,2.3,23.2,6.9,31.9s10.8,15.1,18.5,19.3a52.27,52.27,0,0,0,25.4,6.3,53,53,0,0,0,25.7-6.4Z" transform="translate(0 0.04)"/></svg>