<?xml version="1.0" encoding="utf-8"?>
<!-- Generator: Adobe Illustrator 25.0.0, SVG Export Plug-In . SVG Version: 6.00 Build 0)  -->
<svg version="1.1" id="Layer_1" xmlns="http://www.w3.org/2000/svg" xmlns:xlink="http://www.w3.org/1999/xlink" x="0px" y="0px"
	 viewBox="0 0 952.3 280.3" style="enable-background:new 0 0 952.3 280.3;" xml:space="preserve">
<style type="text/css">
	.st0{fill:#A1835E;}
</style>
<path class="st0" d="M52.4,140.3c-11.1,16.6-16.9,36.2-16.9,56.2c0,4.3,0.3,8.5,0.8,12.7C-1.8,183-11.5,130.7,14.8,92.5
	c5.8-8.4,13.1-15.7,21.5-21.5c-0.5,4.2-0.8,8.5-0.8,12.7c-0.1,20,5.8,39.5,16.9,56.2l-0.1,0.2L52.4,140.3z"/>
<path class="st0" d="M280.3,140.2c0.1,30.3-16.2,58.2-42.6,73c4.2-25.4-1.4-51.4-15.5-72.8l0.1-0.2l-0.1-0.2
	c14.2-21.4,19.7-47.5,15.5-72.8C264.1,82,280.4,109.9,280.3,140.2z"/>
<path class="st0" d="M125.3,67.4L125.3,67.4c-1.2,1.2-2.3,2.4-3.4,3.5l-0.2,0.2c-0.5,0.5-0.9,1-1.4,1.6c-0.1,0.1-0.2,0.2-0.3,0.4
	c-0.5,0.6-1,1.2-1.5,1.8s-1,1.2-1.5,1.9l-0.1,0.1c-0.5,0.6-0.9,1.2-1.4,1.8s-1,1.4-1.5,2.1c-0.3,0.4-0.6,0.8-0.8,1.1
	s-0.6,0.8-0.9,1.2c-0.3,0.4-0.8,1.1-1.1,1.7l-0.2,0.3c-0.5,0.7-0.9,1.4-1.3,2.1s-0.7,1.2-1,1.7l-0.3,0.6c-0.4,0.7-0.8,1.4-1.2,2.1
	c-0.3,0.6-0.6,1.1-0.9,1.7c-0.5,1-1,2-1.5,3.1c-0.3,0.7-0.7,1.4-1,2.1s-0.7,1.6-1,2.3c-0.9,0.3-1.8,0.6-2.6,1h-0.1
	c-0.8,0.3-1.6,0.6-2.4,1L97,103c-0.7,0.3-1.5,0.6-2.2,1l-0.2,0.1l-2,1c-0.2,0.1-0.4,0.2-0.6,0.3c-0.8,0.4-1.6,0.8-2.4,1.2
	c-0.8,0.4-1.4,0.7-2.1,1.1c-0.3,0.2-0.7,0.4-1,0.6c-0.8,0.4-1.5,0.9-2.3,1.3c-0.6,0.3-1.1,0.7-1.7,1l-0.8,0.5
	c-0.8,0.5-1.5,1-2.3,1.6c-0.5,0.4-1,0.7-1.5,1.1l-0.8,0.6c-0.7,0.5-1.3,1-2,1.5s-1.5,1.2-2.2,1.8l-0.1,0.1c-0.6,0.5-1.2,1-1.9,1.6
	l-0.5,0.4c-0.6,0.6-1.3,1.1-1.9,1.7s-1.2,1.1-1.8,1.7l-0.4,0.4c-0.6,0.6-1.2,1.2-1.9,1.9c-11.1-19.6-14-42.8-7.8-64.5
	c8.7-3,17.9-4.5,27.1-4.5C98.4,56.3,112.7,60.1,125.3,67.4z"/>
<path class="st0" d="M221.1,83.8c0,14.6-3.7,28.9-11,41.6l-0.3-0.3c-0.6-0.6-1.3-1.3-1.9-1.9c-0.3-0.3-0.6-0.6-0.9-0.9
	c-0.7-0.6-1.4-1.3-2.1-1.9c-0.7-0.6-1.4-1.2-2-1.8s-1.5-1.3-2.3-1.9s-1.8-1.4-2.7-2c-0.4-0.3-0.9-0.6-1.3-0.9
	c-4.8-3.4-9.8-6.4-15.1-9c-0.4-0.2-0.8-0.4-1.2-0.6l-1.5-0.7c-0.6-1.6-1.3-3.3-2-4.9c-0.1-0.3-0.3-0.6-0.4-0.9
	c-0.2-0.5-0.4-1-0.7-1.4c-0.4-0.8-0.8-1.6-1.2-2.4l-0.5-1.1c-0.2-0.5-0.5-1-0.8-1.4c-0.4-0.7-0.8-1.4-1.2-2.1
	c-0.3-0.5-0.6-1-0.9-1.5c-0.6-1-1.2-2.1-1.9-3.1c-0.2-0.4-0.5-0.7-0.7-1.1c-0.4-0.6-0.8-1.2-1.2-1.8c-0.5-0.8-1-1.5-1.6-2.2
	s-1.1-1.5-1.7-2.2c-0.6-0.7-1-1.3-1.5-1.9l-0.2-0.3c-0.6-0.7-1.1-1.3-1.7-2s-1.1-1.3-1.7-1.9c-0.6-0.6-1.4-1.5-2.1-2.2
	c-0.4-0.5-0.9-0.9-1.4-1.4l-0.5-0.5c12.6-7.2,27-11,41.6-11c7,0,14,0.9,20.7,2.6C219.8,67,221.1,75.4,221.1,83.8z"/>
<path class="st0" d="M208.1,39c-3.9-0.4-7.7-0.7-11.6-0.7c-20-0.1-39.6,5.8-56.2,16.9l-0.2-0.1l-0.2,0.1
	c-16.6-11.1-36.2-17-56.1-16.9c-6,0-12,0.5-17.9,1.6c24.2-39.4,75.9-51.8,115.3-27.5C192.1,19.1,201.3,28.2,208.1,39z"/>
<path class="st0" d="M199.3,140.2c-0.2,0.3-0.5,0.5-0.7,0.8c-0.7,0.8-1.5,1.6-2.3,2.3s-1.3,1.2-1.9,1.9c-0.5,0.5-1,0.9-1.5,1.3l0,0
	c-0.4,0.3-0.8,0.7-1.1,1l0,0l-0.1,0.1c-0.4,0.4-0.8,0.7-1.2,1c-0.2,0.2-0.4,0.4-0.6,0.5c-0.4,0.4-0.9,0.7-1.3,1.1
	c-0.5,0.3-1,0.7-1.4,1.1c-0.5,0.4-0.8,0.6-1.2,0.9s-0.8,0.6-1.2,0.8c0,0,0,0-0.1,0c-0.8,0.5-1.6,1.1-2.4,1.6c-0.8,0.5-1.6,1-2.4,1.5
	c-0.4,0.2-0.8,0.5-1.2,0.7s-1,0.5-1.5,0.8c-0.9,0.5-1.8,1-2.8,1.4c-0.6,0.3-1.1,0.5-1.7,0.8l-1.7,0.8l-0.6,0.3
	c-0.3,0.1-0.7,0.3-1,0.4l-1,0.4l-3.9,1.5l-1.3,3.9c-0.3,0.8-0.6,1.7-0.9,2.5c-0.3,0.7-0.6,1.5-0.9,2.2c-0.2,0.6-0.5,1.1-0.7,1.7
	c-0.2,0.6-0.4,0.9-0.6,1.4c-0.3,0.7-0.7,1.5-1,2.2s-0.6,1.3-1,1.9c-0.9,1.6-1.8,3.3-2.7,4.8c-0.4,0.6-0.8,1.2-1.2,1.8
	c-0.1,0.2-0.2,0.4-0.3,0.5c-0.4,0.5-0.7,1.1-1.1,1.6c-0.5,0.8-1.1,1.6-1.7,2.4c-0.2,0.3-0.4,0.5-0.6,0.8c-0.8,1-1.6,2.1-2.5,3.1
	c-0.2,0.3-0.4,0.5-0.7,0.8c-0.1,0.1-0.2,0.2-0.2,0.3c-0.3,0.4-0.7,0.8-1,1.1l-0.4,0.4c-0.5,0.6-1.1,1.1-1.6,1.7l0,0
	c-0.6,0.6-1.2,1.2-1.9,1.9c-0.6,0.6-1.3,1.2-1.9,1.8c-0.6-0.5-1.1-1-1.6-1.5l-0.3-0.3c-0.5-0.5-1-1-1.5-1.5
	c-0.2-0.2-0.3-0.3-0.5-0.5l-0.3-0.3c-0.4-0.4-0.8-0.8-1.1-1.2c-0.6-0.6-1.1-1.2-1.7-1.9c-0.4-0.5-0.8-0.9-1.2-1.4
	c-0.1-0.1-0.1-0.1-0.1-0.2c-0.2-0.2-0.4-0.5-0.6-0.7c-0.4-0.5-0.8-1.1-1.3-1.6l-0.3-0.4c-0.2-0.3-0.5-0.6-0.7-1s-0.3-0.4-0.5-0.6
	c0,0,0-0.1-0.1-0.1l-0.1-0.2c-0.2-0.3-0.4-0.6-0.6-0.9c-0.2-0.3-0.3-0.5-0.5-0.7c-0.1-0.2-0.2-0.3-0.3-0.5c-0.3-0.4-0.5-0.7-0.7-1.1
	c-0.1-0.1-0.2-0.3-0.3-0.4c-0.3-0.5-0.7-1-1-1.6c-0.1-0.2-0.2-0.3-0.3-0.5v-0.1c-0.2-0.3-0.3-0.6-0.5-0.9v-0.1l0,0
	c-0.2-0.4-0.5-0.8-0.7-1.2l0,0c-0.1-0.1-0.1-0.2-0.2-0.4c-0.3-0.5-0.6-1-0.8-1.6v-0.1c-0.1-0.1-0.2-0.3-0.2-0.4
	c-0.1-0.2-0.2-0.3-0.2-0.5c-0.3-0.6-0.6-1.2-0.9-1.8s-0.7-1.4-1-2.1s-0.6-1.3-0.8-1.9c-0.1-0.3-0.2-0.5-0.3-0.8
	c-0.3-0.6-0.5-1.3-0.8-2l-1.5-4.1l-4.2-1.3l-1-0.3h-0.9l-0.4-0.1c-0.9-0.3-1.8-0.6-2.7-1c-0.5-0.2-1.1-0.4-1.6-0.6l-0.5-0.2
	l-0.3-0.1c-0.7-0.3-1.3-0.6-2-0.9l-0.8-0.3l-0.2-0.1c-0.3-0.1-0.6-0.3-0.9-0.4l-1-0.5c-0.4-0.2-0.9-0.4-1.3-0.7
	c-0.8-0.4-1.5-0.8-2.2-1.2l-1.7-0.9c-0.5-0.3-1.1-0.6-1.6-0.9c-1.1-0.7-2.2-1.4-3.2-2.1l-0.8-0.6l-0.2-0.1l-1.3-0.9
	c-0.4-0.2-0.7-0.5-1.1-0.8s-0.9-0.6-1.3-1s-0.8-0.7-1.3-1s-0.6-0.5-0.9-0.8s-0.5-0.4-0.7-0.6c-0.2-0.2-0.7-0.6-1-0.9
	c-0.3-0.3-0.5-0.4-0.7-0.6l-1.7-1.5l-0.1-0.1c-0.6-0.6-1.1-1.1-1.7-1.7c-0.1,0-0.1-0.1-0.2-0.2l-0.2-0.2c-0.1-0.1-0.1-0.1-0.2-0.2
	s-0.2-0.2-0.3-0.3l-0.2-0.2l0,0l0,0l-0.2-0.2l-0.2-0.2c-0.2-0.2-0.5-0.5-0.7-0.7l0.1-0.1c0.5-0.6,1.1-1.1,1.6-1.7
	c0.2-0.2,0.4-0.4,0.6-0.6c1.1-1.2,2.3-2.3,3.5-3.4c0.8-0.7,1.6-1.4,2.4-2.1c0.6-0.5,1.2-1,1.8-1.5l0.3-0.3c0.5-0.4,1-0.8,1.5-1.1
	l0.8-0.6c0.5-0.4,1-0.7,1.5-1.1l0.8-0.6c0.6-0.4,1.1-0.8,1.7-1.1c1-0.7,2.1-1.3,3.1-1.9c0.3-0.2,0.6-0.4,1-0.6s0.9-0.5,1.4-0.8
	s1-0.5,1.4-0.8s0.9-0.5,1.4-0.7l1-0.5c2.1-1,4.2-1.9,6.3-2.7l1.5-0.6c1-0.4,2-0.7,3.1-1l4.2-1.4l1.5-4.1c0.3-0.7,0.5-1.4,0.8-2.1
	c0-0.1,0.1-0.2,0.1-0.3c0.3-0.8,0.6-1.5,0.9-2.2s0.7-1.5,1-2.3s0.7-1.4,1-2c0.1-0.2,0.2-0.3,0.2-0.5c0.3-0.6,0.6-1.2,1-1.8
	c0-0.1,0.1-0.2,0.1-0.3c0.3-0.6,0.7-1.2,1-1.8l0.2-0.3c0.3-0.5,0.7-1.1,1-1.6c0.6-1,1.3-2,2-3c0.3-0.5,0.7-1,1-1.5l0.2-0.3
	c0.8-1.1,1.7-2.3,2.6-3.4c0.2-0.2,0.4-0.5,0.6-0.7c0-0.1,0.1-0.1,0.1-0.2c0.4-0.4,0.7-0.9,1.1-1.3c0.2-0.2,0.4-0.5,0.7-0.8
	c0.4-0.4,0.7-0.8,1.1-1.2c1-1.1,2.1-2.2,3.2-3.3c0.2-0.2,0.5-0.4,0.7-0.7c0.5-0.5,1-0.9,1.5-1.4c0.7,0.6,1.4,1.2,2,1.9
	c1.3,1.2,2.5,2.4,3.6,3.7l0.3,0.4c0.4,0.5,0.9,1,1.3,1.5c0.7,0.8,1.4,1.7,2.1,2.6c0.3,0.4,0.7,0.9,1,1.3l0.5,0.7
	c0.5,0.6,0.9,1.2,1.3,1.8l0.1,0.1c0.5,0.7,1,1.4,1.4,2.1c0.5,0.7,1,1.5,1.4,2.2c0.4,0.8,0.8,1.3,1.2,2c0.5,0.9,1,1.8,1.5,2.7
	c0.4,0.7,0.7,1.3,1,2l0.1,0.2c0.3,0.7,0.7,1.4,1,2.1l0.3,0.6c0.3,0.6,0.5,1.2,0.8,1.8c0.1,0.2,0.2,0.4,0.2,0.6
	c0.3,0.7,0.6,1.5,0.9,2.2s0.6,1.7,0.9,2.5l1.3,3.9l3.9,1.5c0.7,0.3,1.5,0.6,2.2,0.9s1.4,0.6,2.1,0.9c2.1,1,4.1,2,6.1,3.1l1,0.6
	c3,1.7,5.8,3.7,8.5,5.8c0.5,0.4,1,0.8,1.5,1.2c0.2,0.1,0.4,0.3,0.6,0.5c0.5,0.4,0.9,0.8,1.4,1.2c1.1,0.9,2.1,1.9,3.2,2.9
	c0.5,0.4,0.9,0.9,1.4,1.4c0.1,0.1,0.3,0.3,0.5,0.5c0.4,0.4,0.8,0.8,1.2,1.3c0.3,0.3,0.6,0.6,0.8,0.9
	C199,139.9,199.1,140,199.3,140.2z"/>
<path class="st0" d="M125.3,212.9c-12.6,7.3-27,11-41.5,11c-9.2,0-18.4-1.5-27.1-4.5c-6.1-21.7-3.3-44.9,7.8-64.5
	c0.8,0.8,1.5,1.5,2.3,2.3c0.6,0.6,1.2,1.2,1.8,1.7s1.4,1.3,2.1,1.9c0.7,0.6,1.4,1.2,2.1,1.8l0.1,0.1c0.7,0.6,1.5,1.2,2.2,1.8
	s1.5,1.1,2.3,1.7c0.8,0.6,1.4,1,2.1,1.5l0.2,0.2l0.1,0.1l0,0l0,0c0.7,0.5,1.5,1,2.2,1.5s1.6,1,2.4,1.5s1.6,1,2.5,1.4
	s1.5,0.9,2.3,1.3l0.6,0.3c0.2,0.1,0.4,0.2,0.7,0.4l0.1,0.1l0.2,0.1l0,0l0.3,0.2l0,0l0.1,0.1l0,0l0.2,0.1c0.2,0.1,0.4,0.2,0.7,0.3
	l0.3,0.1l0.8,0.4l0.8,0.4l0.4,0.2l1.3,0.6l0.9,0.4l0,0l0.4,0.2l0.3,0.1l0.2,0.1l1.7,0.7l0.3,0.1c0.9,0.4,1.8,0.7,2.6,1
	c0.3,0.8,0.7,1.6,1,2.3c0.1,0.3,0.3,0.6,0.4,0.9s0.2,0.4,0.3,0.5c0.1,0.4,0.3,0.7,0.5,1c0.3,0.6,0.6,1.2,0.9,1.7
	c0.1,0.1,0.1,0.2,0.2,0.4v0.1l0.2,0.5c0.3,0.6,0.7,1.3,1,1.9l0.6,1c0.3,0.5,0.5,1,0.8,1.4s0.7,1.2,1,1.7s0.9,1.4,1.3,2.1l0.2,0.3
	l0.5,0.7l0.1,0.1l0.7,1c0.4,0.6,0.8,1.2,1.2,1.7s0.7,0.9,1,1.4l0.6,0.8c0.2,0.3,0.5,0.7,0.8,1c0.1,0.1,0.2,0.2,0.2,0.3
	c0.2,0.3,0.5,0.7,0.8,1c0.5,0.6,1,1.2,1.5,1.9c0.2,0.3,0.5,0.6,0.7,0.8s0.5,0.6,0.7,0.8c0,0,0,0.1,0.1,0.1l0.3,0.3l0.5,0.5l0.1,0.1
	c0.3,0.4,0.6,0.7,1,1.1c0.6,0.6,1.1,1.2,1.7,1.8s1.2,1.2,1.8,1.8L125.3,212.9z"/>
<path class="st0" d="M208.1,241.3c-24.7,39.1-76.5,50.8-115.6,26c-10.8-6.8-19.9-16.1-26.6-27c5.9,1.1,11.9,1.6,17.9,1.6
	c20,0.1,39.5-5.8,56.2-16.9l0.2,0.1l0.2-0.1C160.3,238.2,184.3,244,208.1,241.3z"/>
<path class="st0" d="M221.1,196.5c0,8.4-1.3,16.8-3.8,24.8c-6.8,1.7-13.8,2.6-20.8,2.6c-14.6,0-28.9-3.7-41.6-11l0.5-0.5
	c0.5-0.5,0.9-0.9,1.4-1.4l0.6-0.7c0.5-0.5,1-1.1,1.5-1.6c0.6-0.7,1.3-1.4,1.9-2.1l0.1-0.2c0.5-0.6,1-1.2,1.6-1.9
	c0.7-0.8,1.4-1.7,2-2.5c0.5-0.7,1-1.4,1.6-2.1s1.1-1.5,1.6-2.2l0.2-0.2c0.5-0.7,1-1.5,1.5-2.2c0.6-1,1.2-2,1.8-3
	c0.7-1.2,1.5-2.5,2.1-3.7c0.3-0.5,0.6-1,0.8-1.6s0.6-1.2,1-1.9c0.2-0.3,0.3-0.7,0.5-1c0.3-0.7,0.6-1.4,1-2c0.8-1.8,1.6-3.6,2.3-5.5
	c4.1-1.9,8.1-4,12-6.4l1-0.6c1-0.6,2-1.3,2.9-1.9c0.6-0.4,1.2-0.8,1.8-1.3c0.4-0.3,0.9-0.6,1.3-0.9c2.2-1.6,4.3-3.3,6.4-5.1
	c0.4-0.3,0.7-0.7,1.1-1c1.5-1.4,3-2.8,4.4-4.2l0.3-0.3C217.3,167.6,221.1,181.9,221.1,196.5z"/>
<path class="st0" d="M423.6,40.7v196.4H398V40.7H423.6z"/>
<path class="st0" d="M604.3,82.7v154.4h-25.7v-22.8c-4.9,7.9-12,14.3-20.4,18.5c-9,4.5-18.9,6.7-28.9,6.6c-12,0-22.8-2.5-32.4-7.5
	s-17.5-12.8-22.7-22.4c-5.5-10-8.3-22.1-8.3-36.4V82.7h25.4v87.1c0,15.2,3.9,26.9,11.5,35.1c7.7,8.2,18.2,12.3,31.6,12.3
	c13.7,0,24.5-4.2,32.4-12.7s11.8-20.8,11.8-36.9V82.7H604.3z"/>
<path class="st0" d="M705.2,213.4l47.9-130.8h27.3L719.8,237h-29.9L629.3,82.7h27.6L705.2,213.4z"/>
<path class="st0" d="M833.8,229.8c-11.7-6.5-21.3-16.2-27.6-28c-6.7-12.1-10-26.2-10-42.1c0-15.8,3.4-29.7,10.3-41.8
	c6.5-11.8,16.2-21.4,28-27.9s25.1-9.7,39.7-9.7c14.7,0,27.9,3.2,39.7,9.7c11.8,6.4,21.5,16.1,28,27.8c6.9,12,10.3,26,10.3,42
	s-3.5,30-10.6,42.1c-6.7,11.8-16.6,21.5-28.6,28c-12.3,6.6-26,10-40,9.9C858.6,239.6,845.5,236.3,833.8,229.8z M899,210.6
	c8.2-4.5,15-11.2,19.6-19.5c5-8.6,7.5-19.1,7.5-31.6c0-12.4-2.4-22.9-7.3-31.6c-4.9-8.7-11.3-15.1-19.2-19.3
	c-16.1-8.5-35.3-8.5-51.4,0c-7.8,4.2-14,10.7-18.7,19.3s-7,19.2-7,31.6c0,12.6,2.3,23.2,6.9,31.9c4.6,8.6,10.8,15.1,18.5,19.3
	c7.8,4.2,16.5,6.4,25.4,6.3C882.1,217.1,891.1,214.9,899,210.6L899,210.6z"/>
</svg>
